PathFileType	4	(X/Y/Z)	Patient4_TMGait_0pt2_01_right_17.trc.trc
DataRate	CameraRate	NumFrames	NumMarkers	Units	OrigDataRate	OrigDataStartFrame	OrigNumFrames
42.424242424242	42.424242424242	7	33	mm	42.424242424242	1	       141
Frame#	Time	Sacral			L.Shoulder			Chest			R.Shoulder			Neck			R.ASIS			L.ASIS			R.Thigh.Superior			R.Thigh.Lateral			R.Thigh.Inferior			R.Patella			L.Thigh.Superior			L.Thigh.Lateral			L.Thigh.Inferior			L.Patella			L.Shank.Superior			L.Shank.Lateral			L.Shank.Inferior			R.Shank.Superior			R.Shank.Lateral			R.Shank.Inferior			R.Heel			R.Midfoot.Superior			R.Midfoot.Lateral			R.Toe			L.Heel			L.Midfoot.Lateral			L.Midfoot.Superior			L.Toe			L.Elbow			L.Wrist			R.Elbow			R.Wrist			
		X1	Y1	Z1	X2	Y2	Z2	X3	Y3	Z3	X4	Y4	Z4	X5	Y5	Z5	X6	Y6	Z6	X7	Y7	Z7	X8	Y8	Z8	X9	Y9	Z9	X10	Y10	Z10	X11	Y11	Z11	X12	Y12	Z12	X13	Y13	Z13	X14	Y14	Z14	X15	Y15	Z15	X16	Y16	Z16	X17	Y17	Z17	X18	Y18	Z18	X19	Y19	Z19	X20	Y20	Z20	X21	Y21	Z21	X22	Y22	Z22	X23	Y23	Z23	X24	Y24	Z24	X25	Y25	Z25	X26	Y26	Z26	X27	Y27	Z27	X28	Y28	Z28	X29	Y29	Z29	X30	Y30	Z30	X31	Y31	Z31	X32	Y32	Z32	X33	Y33	Z33	

1	37.830000000000	722.017319961339	1001.863917670088	417.041615522958	888.888895811211	1434.442446633075	243.260122878873	995.817861687213	1363.192366021374	400.108532734043	916.092560078356	1428.430113413200	578.483803347258	868.533203583634	1491.081626105146	403.982497352159	950.203790440408	934.437808934570	531.784085210986	936.586039152965	959.437865771190	259.812821005634	974.759103215930	724.862492971061	513.437190339646	888.306429684921	624.572112026350	585.532962593564	960.433787859202	557.784984934956	509.333443659920	946.132874202259	453.063271433295	532.409234562279	997.225336235512	753.353549660701	303.166849823833	924.415622730182	623.398162372640	244.487457708857	1011.652959923471	557.335169296368	315.724980366431	1016.310997190969	484.065306752204	326.614916821804	982.931343849926	409.786496409271	321.337405451316	889.800644641703	300.049454050378	267.633526789092	923.905693076767	188.382371875553	345.214405964481	870.280534923805	389.429181091895	546.549010842230	755.989461987152	349.023855667741	618.055905772887	742.037753008913	236.936044612405	571.367947468170	538.306231826456	158.720908657344	562.636483222147	714.637320029411	118.336225896472	590.742721097069	609.128696494646	107.160437654820	630.774112690280	791.597838557943	33.275974361128	609.894824486899	782.527435372723	39.283266418103	378.691026106639	862.367114294526	35.610084521531	304.294033871681	944.497437557837	95.884622159936	337.295577803632	1074.203225803149	40.970338634874	318.730034070458	883.782481353753	1088.319213536246	105.073532666704	980.930626796589	843.561521483513	114.816186628071	981.138582327308	1079.229714969511	689.356392136301	1163.288164674716	891.397842154213	709.497864170908	
2	37.853571428571	719.971960619253	999.251398979647	412.607320261283	891.502310853179	1432.018779340140	241.500276734190	995.891486293844	1360.016390062631	399.633408093027	913.959150708581	1425.032587307715	577.152495956948	869.218073216288	1488.642738830629	401.896161667524	947.772682086588	932.307179656796	529.821447162280	936.588403304430	956.989947439729	257.517607010381	980.243468647485	726.191018175714	510.077104466243	898.537203431665	623.127333256463	581.882723330991	973.221366339142	558.902918631806	505.679354039243	961.456385336077	452.591636169375	529.368379403920	998.115209379877	751.667346780842	301.717599050861	926.554111118616	621.166026406640	243.560400402039	1013.511937020629	555.781601763089	316.205354035309	1018.548097717754	482.140863080385	327.318100178749	983.878935549710	407.593895888862	321.972983464361	889.564745076364	299.135330767916	267.748969222206	921.157237033868	187.229763050621	345.614870696492	883.566225876249	389.219370351704	542.961911839992	766.924316189636	353.177825660577	612.793004608566	749.766612163389	241.602916584803	566.992824331429	544.734972369128	173.026117570053	554.955999244997	717.605524507861	123.825957431701	587.327711592937	611.237572334825	119.099263496704	625.231878508222	788.661554572716	32.284472855901	609.705322791187	777.879858738157	39.250768045867	378.607317019164	857.783634010949	35.625337337137	304.209982584591	939.885366783379	95.760496611448	337.452330386134	1069.603049304635	40.826592412910	318.704254003075	897.933731163745	1087.702392748194	100.723751303496	1007.977434913179	849.620107023788	111.581818409206	959.899796121157	1073.400754070813	685.580835140720	1120.822984397791	871.916321288324	705.562442261697	
3	37.877142857143	717.907400818347	996.670607834949	408.129563553077	894.246449912734	1429.634658350048	239.804966281952	995.909770556969	1356.887530260661	399.325912172190	911.562649246585	1421.706491542718	575.869135937025	869.904691264555	1486.243837882610	399.883643810009	945.177047786928	930.244830958667	527.940214059292	936.641570049920	954.580525433945	255.322982250713	985.700574788188	727.877161148320	506.701023379049	908.985273830039	622.006908077887	578.229802879191	986.228009130568	560.493924694411	501.942850393948	977.196002760840	452.576213353710	526.221630616275	998.961656638265	749.938600094867	300.349847588786	928.564158059311	618.937687785155	242.711118888630	1015.173456895832	554.198102453616	316.789964519824	1020.534068697302	480.200794610639	328.146726356057	984.579158115711	405.406563612946	322.684596932705	889.107635073024	298.226159563001	267.902128157728	918.188869051508	186.077997909215	346.035353585400	897.333956018733	389.332367017869	539.294221766914	778.287633792499	357.449274380021	607.332172972752	758.197253003993	246.271520087661	562.433464042871	551.853932162606	186.567912522238	546.960178122246	721.579545598734	129.357210358239	583.695045291523	614.279940189523	130.594397054852	619.417822118472	787.150843717174	31.609247446725	609.383333933473	773.018043959936	39.221228008330	378.517902703516	852.986282159158	35.635287574936	304.123072038796	935.061471056783	95.633746080872	337.609495121384	1064.789556375794	40.685306253894	318.677662846030	912.640159086847	1087.395904617286	96.349543521707	1036.219381868621	856.738716091372	108.413612399077	937.403441754009	1068.043799162341	681.711699381982	1076.384810843111	853.268384380934	701.060931827491	
4	37.900714285714	715.899561795481	994.299556376026	403.767032922851	897.080192633775	1427.446288064650	238.284175106342	995.850766743969	1354.000751765373	399.283375182551	908.894527578917	1418.679944981316	574.706991057898	870.565552798782	1484.044457818815	398.060098319384	942.447501041231	928.414703104066	526.278726529662	936.767970091916	952.363875026452	253.383094531209	990.838738008990	730.002536296905	503.484277224088	919.203005637490	621.405726142159	574.760433748331	998.888380925489	562.676523952466	498.301618578698	992.753274133444	453.236146235204	523.117944036346	999.674577085150	748.240751744694	299.170500126674	930.255618454510	616.840977811801	242.002564666118	1016.413701983888	552.653430662240	317.489056507401	1022.001348875148	478.343293758852	329.104816694892	984.832261865198	403.345491634491	323.460841989622	888.304954701493	297.374487747505	268.093156343213	915.004484584691	184.990731986968	346.461041752272	911.163552395010	389.899848257469	535.729678043799	789.810128940876	361.592794935420	601.921254181824	767.385851740973	250.644929389327	557.897401787534	559.873939925174	198.218799349016	538.991856886912	727.025225868522	134.589345465414	579.997953257393	618.768315211880	140.773102943670	613.585073123759	788.015050852222	31.366261242978	608.952733713329	768.048037092068	39.195946121078	378.424745662671	848.078763688079	35.637607773372	304.035948786240	930.131430916674	95.510903102270	337.757846269158	1059.867518489343	40.554287770688	318.651034982130	927.530740734396	1087.592189841446	92.147444510209	1064.947927701125	865.160298929149	105.503820535321	914.139182791588	1063.652100010143	677.846344401667	1031.143336006065	836.651496491658	695.963779164730	
5	37.924285714286	714.004944962575	992.321383453333	399.635331525737	899.984726506892	1425.607664252751	237.032026308858	995.700093038302	1351.543225371666	399.591314194710	905.951613288162	1416.176276368079	573.722477891479	871.176573669266	1482.204202033830	396.511547812307	939.597611383312	926.979503802531	524.959291904547	936.990543850489	950.491609538354	251.834347531734	995.384091583036	732.626648183381	500.598842757407	928.752115683153	621.483701776443	571.650701559713	1010.665853700690	565.527964443785	494.941429657775	1007.561116857985	454.758083483459	520.225311462706	1000.154236577982	746.645874761239	298.272660668705	931.437390660614	615.002311651325	241.477531337184	1017.001560180754	551.213524281898	318.300758148749	1022.678165310758	476.663160718916	330.178992166332	984.429609934525	401.526788265896	324.277844886595	887.019250798404	296.630145513304	268.312189545907	911.585752439960	184.029469281142	346.873819200214	924.678410862981	391.022666845625	532.464323195725	801.286383306759	365.326236467366	596.835207885950	777.445825198252	254.408826509357	553.620152130809	569.096411438584	206.887212303123	531.439394834391	734.455296165896	139.156764398332	576.428502800478	625.277153956822	148.774282160226	608.032444263262	792.229447161618	31.636801946212	608.473690066386	763.047382026788	39.174683031994	378.329449759736	843.137897908819	35.631096738500	303.950007332363	925.172743270788	95.398502143080	337.887561470612	1054.914284621314	40.440971112984	318.625120308584	942.320459885462	1088.478048237642	88.289644128468	1093.575831238891	875.140438157176	103.026789986222	890.562044319495	1060.662823545589	674.043629449953	986.145029519757	823.039633104890	690.270547101629	
6	37.947857142857	712.257062431138	990.906158998757	395.802778751656	902.961315727817	1424.254401096383	236.119641312616	995.453136914475	1349.675489242449	400.313553007347	902.743339913255	1414.391740867945	572.950686416421	871.720637513413	1480.865737701690	395.289382279944	936.626025590647	926.083559464493	524.078682505614	937.327565485965	949.096079438268	250.784413189726	999.100197661781	735.769230497700	498.202604263307	937.228530222975	622.340765830387	569.058231285301	1021.085277037325	569.062473320781	492.046965299113	1021.113446446181	457.268078379747	517.721836496728	1000.299438501014	745.218756247083	297.729379445095	931.937077468391	613.534995670932	241.155777025579	1016.724260464234	549.936514762586	319.211509203878	1022.318662910226	475.243700012725	331.339402369133	983.178775845358	400.051185609758	325.101822333562	885.118128146844	296.035898284087	268.541133874315	907.899475262929	183.247999127178	347.254398798926	937.560104146045	392.754465966475	529.694960271146	812.584211558540	368.352567906320	592.363202995546	788.525502594303	257.263890985067	549.855155779983	579.890275503405	211.643253810156	524.715573119370	744.367092048198	142.705317078063	573.211357604303	634.384753951392	153.846697244931	603.089994213594	800.669583520085	32.453070682772	608.045532857310	758.064275858612	39.155834208406	378.233414646903	838.212328510232	35.615771613700	303.865716921821	920.233625398268	95.302462050573	337.989489891381	1049.978597724286	40.351500561245	318.600636731455	956.820035887161	1090.213133558533	84.914012742704	1121.651221566568	886.907060784009	101.128213453812	867.090311445027	1059.409348601948	670.324145313065	942.290306193854	813.090631795392	684.022185472258	
7	37.971428571429	710.667325364098	990.189424404697	392.297416569907	906.024240965182	1423.486372249768	235.592330332701	995.115264872713	1348.512592653084	401.485909961536	899.296803948565	1413.472316150771	572.405284335834	872.190263166408	1480.136219136904	394.411776913707	933.522683391433	925.834925759114	523.703288594916	937.787182588960	948.272598356219	250.305923329366	1001.803306213480	739.397112436256	496.430080639007	944.285295992942	623.999953133335	567.116253821320	1029.759466204545	573.218951713903	489.791275106455	1032.988270077962	460.811001532231	515.782088670464	1000.017659713112	744.010011553419	297.591941861571	931.621371078795	612.526562111017	241.037006826709	1015.415304262714	548.867798416168	320.200503847280	1020.734544251087	474.148589621279	332.546201590603	980.931244132002	398.993700737577	325.895648716179	882.495500660348	295.623316477608	268.758445623007	903.909274223518	182.686707978184	347.585721696673	949.553804966538	395.093481324348	527.604859854564	823.641285019623	370.393756453485	588.788923635736	800.774442942226	258.966853590991	546.856760692838	592.652600866827	211.842777989228	519.224960851616	757.170533549919	144.940041499611	570.586551014701	646.604781604565	155.452020863032	599.092886041651	813.977942637769	33.797093103866	607.800450595172	753.121911988648	39.136977784375	378.138090494717	833.326025713004	35.592776036681	303.783233669518	915.337021458158	95.227390033862	338.056791251366	1045.084275672391	40.289840148014	318.578310902482	970.930051790523	1092.910855927557	82.120116359019	1148.849876734318	900.623640198321	99.920343441091	844.105253005703	1060.086122680526	666.680445431793	900.332618357819	807.106009416410	677.303330222486	
